# xmcd CD database file
#
# Track frame offsets:
#	150
#	17949
#	34649
#	50896
#	67143
#	89509
#	106689
#	123969
#	139050
#	158831
#	175852
#	191398
#	210306
#	228033
#	244442
#	264451
#	278754
#	299978
#
# Disc length: 4208 seconds
#
# Revision: 1
# Processed by: cddbd v1.5.2PL0 Copyright (c) Steve Scherf et al.
# Submitted via: CDex 1.51
#
DISCID=0a106e12
DTITLE=Various Artist - EZH-91
DYEAR=1900
DGENRE=Blues
TTITLE0=Rihanna Ft Calvin Harris - We Found Love
TTITLE1=Wanted The - Lightning
TTITLE2=LMFAO - Sexy and I Know It
TTITLE3=Charlene Soraia - Wherever You Will Go
TTITLE4=Lana Del Ray - Video Games
TTITLE5=Maroon 5 Ft Christina Aguilera - Moves like Jagger
TTITLE6=One Direction - Gotta Be You
TTITLE7=Pixie Lott  - All About Tonight
TTITLE8=Cher Lloyd Ft Mike Posner - With Ur Love
TTITLE9=X Factor Finalists-2011 - Wishing On A Star
TTITLE10=Ed Sheeran - Lego House
TTITLE11=Kelly Clarkson - Mr Know It All
TTITLE12=JLS - Take A Chance On Me
TTITLE13=Ting Tings The - Hang It Up
TTITLE14=Professor Green Ft Emile Sande - Read All about It
TTITLE15=Amy Winehouse - Our Day Will Come
TTITLE16=Amy Winehouse - Like Smoke
TTITLE17=Justin Bieber - Mistletoe
EXTD=
EXTT0=
EXTT1=
EXTT2=
EXTT3=
EXTT4=
EXTT5=
EXTT6=
EXTT7=
EXTT8=
EXTT9=
EXTT10=
EXTT11=
EXTT12=
EXTT13=
EXTT14=
EXTT15=
EXTT16=
EXTT17=
PLAYORDER=
